<svg width="16" height="14" viewBox="0 0 16 14" version="1.1" xmlns="http://www.w3.org/2000/svg" xmlns:xlink="http://www.w3.org/1999/xlink" xmlns:figma="http://www.figma.com/figma/ns">
<title>Polygon 6</title>
<desc>Created using Figma</desc>
<g id="Canvas" transform="translate(819 -924)" figma:type="canvas">
<g id="Polygon 6" figma:type="regular-polygon">
<mask id="mask0_outline_ins">
<use xlink:href="#path0_fill" fill="white" transform="matrix(-1 1.22465e-16 -1.22465e-16 -1 -802 938)"/>
</mask>
<g mask="url(#mask0_outline_ins)">
<use xlink:href="#path1_stroke_2x" transform="matrix(-1 1.22465e-16 -1.22465e-16 -1 -802 938)" fill="#CBACAC"/>
</g>
</g>
</g>
<defs>
<path id="path0_fill" d="M 9 0L 16.7942 13.5L 1.20577 13.5L 9 0Z"/>
<path id="path1_stroke_2x" d="M 9 0L 10.299 -0.75L 9 -3L 7.70096 -0.75L 9 0ZM 16.7942 13.5L 16.7942 15L 19.3923 15L 18.0933 12.75L 16.7942 13.5ZM 1.20577 13.5L -0.0932667 12.75L -1.3923 15L 1.20577 15L 1.20577 13.5ZM 7.70096 0.75L 15.4952 14.25L 18.0933 12.75L 10.299 -0.75L 7.70096 0.75ZM 16.7942 12L 1.20577 12L 1.20577 15L 16.7942 15L 16.7942 12ZM 2.50481 14.25L 10.299 0.75L 7.70096 -0.75L -0.0932667 12.75L 2.50481 14.25Z"/>
</defs>
</svg>
