<svg width="25" height="23" viewBox="0 0 25 23" version="1.1" xmlns="http://www.w3.org/2000/svg" xmlns:xlink="http://www.w3.org/1999/xlink" xmlns:figma="http://www.figma.com/figma/ns">
<title>Star</title>
<desc>Created using Figma</desc>
<g id="Canvas" transform="translate(741 -920)" figma:type="canvas">
<g id="Star" figma:type="star">
<mask id="mask0_outline_ins">
<use xlink:href="#path0_fill" fill="white" transform="translate(-741 920)"/>
</mask>
<g mask="url(#mask0_outline_ins)">
<use xlink:href="#path1_stroke_2x" transform="translate(-741 920)" fill="#CBACAC"/>
</g>
</g>
</g>
<defs>
<path id="path0_fill" d="M 12.5 0L 15.579 8.26208L 24.3882 8.63729L 17.482 14.1187L 19.8473 22.6127L 12.5 17.7384L 5.15268 22.6127L 7.51802 14.1187L 0.611794 8.63729L 9.42097 8.26208L 12.5 0Z"/>
<path id="path1_stroke_2x" d="M 12.5 0L 14.3741 -0.698417C 14.0824 -1.48102 13.3352 -2 12.5 -2C 11.6648 -2 10.9176 -1.48102 10.6259 -0.698417L 12.5 0ZM 15.579 8.26208L 13.7049 8.9605C 13.9857 9.714 14.6905 10.226 15.4939 10.2603L 15.579 8.26208ZM 24.3882 8.63729L 25.6316 10.2038C 26.2857 9.68461 26.5484 8.81356 26.2903 8.01925C 26.0322 7.22495 25.3077 6.67464 24.4733 6.6391L 24.3882 8.63729ZM 17.482 14.1187L 16.2386 12.5522C 15.6088 13.0521 15.3396 13.8806 15.5553 14.6553L 17.482 14.1187ZM 19.8473 22.6127L 18.7417 24.2793C 19.4376 24.741 20.3472 24.7217 21.0229 24.2307C 21.6986 23.7398 21.9981 22.8808 21.774 22.0762L 19.8473 22.6127ZM 12.5 17.7384L 13.6057 16.0718C 12.9356 15.6272 12.0644 15.6272 11.3943 16.0718L 12.5 17.7384ZM 5.15268 22.6127L 3.22599 22.0762C 3.00194 22.8808 3.30143 23.7398 3.97711 24.2307C 4.65279 24.7217 5.56238 24.741 6.25834 24.2793L 5.15268 22.6127ZM 7.51802 14.1187L 9.44471 14.6553C 9.66043 13.8806 9.39123 13.0521 8.76138 12.5522L 7.51802 14.1187ZM 0.611794 8.63729L 0.526685 6.6391C -0.307744 6.67464 -1.03223 7.22495 -1.29032 8.01925C -1.54841 8.81356 -1.28574 9.68461 -0.631567 10.2038L 0.611794 8.63729ZM 9.42097 8.26208L 9.50608 10.2603C 10.3095 10.226 11.0143 9.714 11.2951 8.9605L 9.42097 8.26208ZM 10.6259 0.698417L 13.7049 8.9605L 17.4531 7.56366L 14.3741 -0.698417L 10.6259 0.698417ZM 15.4939 10.2603L 24.3031 10.6355L 24.4733 6.6391L 15.6641 6.26389L 15.4939 10.2603ZM 23.1448 7.07074L 16.2386 12.5522L 18.7253 15.6853L 25.6316 10.2038L 23.1448 7.07074ZM 15.5553 14.6553L 17.9206 23.1492L 21.774 22.0762L 19.4087 13.5822L 15.5553 14.6553ZM 20.953 20.9461L 13.6057 16.0718L 11.3943 19.405L 18.7417 24.2793L 20.953 20.9461ZM 11.3943 16.0718L 4.04703 20.9461L 6.25834 24.2793L 13.6057 19.405L 11.3943 16.0718ZM 7.07937 23.1492L 9.44471 14.6553L 5.59133 13.5822L 3.22599 22.0762L 7.07937 23.1492ZM 8.76138 12.5522L 1.85515 7.07074L -0.631567 10.2038L 6.27466 15.6853L 8.76138 12.5522ZM 0.696902 10.6355L 9.50608 10.2603L 9.33586 6.26389L 0.526685 6.6391L 0.696902 10.6355ZM 11.2951 8.9605L 14.3741 0.698417L 10.6259 -0.698417L 7.54688 7.56366L 11.2951 8.9605Z"/>
</defs>
</svg>
